<?xml version="1.0" encoding="UTF-8"?>
<svg width="427px" height="289px" viewBox="0 0 427 289" version="1.1" xmlns="http://www.w3.org/2000/svg" xmlns:xlink="http://www.w3.org/1999/xlink">
    <!-- Generator: Sketch 45 (43475) - http://www.bohemiancoding.com/sketch -->
    <title>Group 6</title>
    <desc>Created with Sketch.</desc>
    <defs></defs>
    <g id="Page-1" stroke="none" stroke-width="1" fill="none" fill-rule="evenodd">
        <g id="website-voorstel-5-f" transform="translate(-248.000000, -210.000000)" fill="#FE4365">
            <g id="Group-6" transform="translate(248.695312, 210.190430)">
                <path d="M344.701606,234.827062 L303.778378,287.143452 C303.139,287.960836 302.196611,288.40162 301.234563,288.431183 C300.558805,288.489435 299.888963,288.323288 299.314122,287.897535 C299.228952,287.842517 299.145521,287.783183 299.064108,287.7195 C298.720783,287.450942 298.443899,287.128926 298.236022,286.774448 L231.192426,210.608748 L61.8402591,206.540579 C61.6533781,206.536089 61.4745801,206.520085 61.3038416,206.493542 C60.4171807,206.545204 59.5193422,206.263685 58.8399231,205.620814 L1.13135078,151.555564 C0.460998516,150.921273 0.0812137696,150.039068 0.0812137696,149.116193 L0.0812137696,119.08508 C0.0812137696,118.569376 0.197454802,118.080821 0.40516515,117.644188 L32.5280344,35.176863 C32.8076541,34.4576891 33.3077949,33.889469 33.9210485,33.5194713 C34.2797826,33.237114 34.6488534,33.0327692 34.9711464,32.9348944 L194.902743,0.233054355 C195.678525,0.0744271941 196.446497,0.197114623 197.100841,0.531226537 L321.080232,44.5204856 C321.092626,44.5248799 321.104978,44.5293395 321.117288,44.533864 C321.440483,44.6489851 321.751394,44.8159867 322.038045,45.0364321 L404.509556,108.460162 C405.129088,108.936607 405.563048,109.614212 405.736668,110.376234 L419.491669,170.747411 C419.633827,171.04293 419.625419,171.491935 419.516643,172.21512 L415.923676,203.68277 C415.74824,204.849133 414.973783,205.837964 413.883433,206.287762 L344.701606,234.827062 Z M340.528072,229.749772 C340.84166,229.350565 341.249828,229.017577 341.736798,228.788741 C342.037968,228.622552 342.355917,228.489592 342.678126,228.396165 L409.564589,200.803761 L413.015743,172.511429 C412.989218,172.426583 412.965832,172.340028 412.945745,172.251866 L399.456534,113.047252 L318.363211,50.6834004 L195.221596,7.02340082 L38.1970981,39.130815 L6.79778646,119.888952 L6.79778646,147.670468 L62.4907222,199.837694 L232.929806,203.931973 C234.2778,203.964354 235.205244,204.595871 235.720946,205.459813 L301.14995,279.632647 L340.386553,229.920333 C340.431894,229.86237 340.479112,229.805493 340.528072,229.749772 L340.528072,229.749772 Z" id="Combined-Shape" fill-rule="nonzero"></path>
                <circle id="Oval-15" cx="46.7725446" cy="119.199865" r="10.074859"></circle>
                <circle id="Oval-15" cx="113.938272" cy="169.574161" r="10.074859"></circle>
                <circle id="Oval-15" cx="231.478294" cy="52.0341385" r="10.074859"></circle>
                <circle id="Oval-15" cx="298.644021" cy="204.836167" r="10.074859"></circle>
                <circle id="Oval-15" cx="416.184043" cy="171.253304" r="10.074859"></circle>
                <path d="M231.988756,50.0867378 L196.503738,2.43449106 C195.949862,1.690699 194.897893,1.53674228 194.154101,2.09061909 C193.410309,2.6444959 193.256352,3.69646438 193.810229,4.44025644 L229.295247,52.0925031 C229.849124,52.8362952 230.901092,52.9902519 231.644884,52.4363751 C232.388676,51.8824983 232.542633,50.8305298 231.988756,50.0867378 Z" id="Path-12" fill-rule="nonzero"></path>
                <path d="M33.9936986,36.6161526 C33.8709177,35.6969513 34.516544,34.8522578 35.4357453,34.7294769 C36.3549466,34.6066961 37.1996401,35.2523224 37.3224209,36.1715237 L48.3909917,119.036583 L46.7266305,120.938041 L3.43956217,120.938041 C2.512197,120.938041 1.760419,120.186263 1.760419,119.258898 C1.760419,118.331533 2.512197,117.579755 3.43956217,117.579755 L44.8082851,117.579755 L33.9936986,36.6161526 Z" id="Path-13" fill-rule="nonzero"></path>
                <path d="M115.287465,170.448773 L232.545443,52.9612237 C233.200548,52.3048366 233.199508,51.2416624 232.543121,50.5865578 C231.886734,49.9314532 230.82356,49.932493 230.168455,50.5888801 L112.910477,168.076429 C112.255372,168.732816 112.256412,169.79599 112.912799,170.451095 C113.569186,171.1062 114.63236,171.10516 115.287465,170.448773 Z" id="Path-14" fill-rule="nonzero"></path>
                <path d="M59.1628758,203.730413 C59.3455162,204.639615 60.2306296,205.228609 61.1398318,205.045969 C62.049034,204.863329 62.6380287,203.978215 62.4553882,203.069013 L45.6639565,119.479595 L44.0477052,118.131419 L3.469505,117.406205 C2.5422879,117.389634 1.77719628,118.127858 1.76062505,119.055075 C1.74405381,119.982292 2.48227814,120.747384 3.40949524,120.763955 L42.6374177,121.465037 L59.1628758,203.730413 Z" id="Path-16" fill-rule="nonzero"></path>
                <path d="M301.999328,203.57455 L234.272793,52.710751 C233.892992,51.8647267 232.899264,51.4867785 232.053239,51.8665799 C231.207215,52.2463814 230.829267,53.2401094 231.209068,54.0861337 L298.935603,204.949933 C299.315404,205.795957 300.309132,206.173905 301.155157,205.794104 C302.001181,205.414302 302.379129,204.420574 301.999328,203.57455 Z" id="Path-17" fill-rule="nonzero"></path>
                <path d="M299.32043,207.566212 L342.305839,233.268253 C343.101776,233.744164 344.132812,233.484731 344.608723,232.688794 C345.084633,231.892857 344.8252,230.861821 344.029263,230.385911 L301.043854,204.68387 C300.247917,204.207959 299.216881,204.467392 298.740971,205.263329 C298.26506,206.059266 298.524493,207.090302 299.32043,207.566212 Z" id="Path-19" fill-rule="nonzero"></path>
                <path d="M414.26321,203.433015 L418.749671,173.605267 C418.887607,172.688217 418.25601,171.832983 417.33896,171.695047 C416.421911,171.557112 415.566676,172.188708 415.428741,173.105758 L410.94228,202.933506 C410.804345,203.850556 411.435941,204.70579 412.352991,204.843726 C413.27004,204.981661 414.125275,204.350065 414.26321,203.433015 Z" id="Path"></path>
                <path d="M114.130962,168.688327 L60.1240973,201.907491 C59.3341957,202.393353 59.0877227,203.427564 59.5735845,204.217465 C60.0594463,205.007367 61.0936568,205.25384 61.8835584,204.767978 L115.890424,171.548814 C116.680325,171.062952 116.926798,170.028741 116.440936,169.23884 C115.955075,168.448938 114.920864,168.202465 114.130962,168.688327 Z" id="Path-22" fill-rule="nonzero"></path>
                <path d="M318.269829,49.0526889 L233.519322,52.7363677 L49.5579525,119.160773 L117.183521,168.965622 L301.685029,203.689478 L414.571192,171.215902 L318.269829,49.0526889 Z M417.901049,173.752491 L302.230385,207.027074 L116.185773,172.195088 L45.0356119,120.000935 L45.4610948,117.069555 L232.619967,49.4906016 L318.98319,45.6602256 L320.374787,46.2982665 L418.755523,171.099271 L417.901049,173.752491 Z" id="Path-11" fill-rule="nonzero"></path>
                <path d="M299.454076,206.557945 L299.454076,285.074341 C299.454076,286.001706 300.205854,286.753484 301.133219,286.753484 C302.060584,286.753484 302.812362,286.001706 302.812362,285.074341 L302.812362,206.557945 C302.812362,205.63058 302.060584,204.878802 301.133219,204.878802 C300.205854,204.878802 299.454076,205.63058 299.454076,206.557945 Z" id="Path-20" fill-rule="nonzero"></path>
            </g>
        </g>
    </g>
</svg>